<svg width="29px" height="29px" viewBox="0 0 29 29" version="1.1" xmlns="http://www.w3.org/2000/svg" xmlns:xlink="http://www.w3.org/1999/xlink">
    <defs>
        <linearGradient x1="50%" y1="-2.48949813e-15%" x2="50%" y2="100%" id="linearGradient-0xxyk4j2_9-1">
            <stop stop-color="#1E80FF" offset="0%"></stop>
            <stop stop-color="#0D49FF" offset="100%"></stop>
        </linearGradient>
        <linearGradient x1="43.3760053%" y1="2.24179788%" x2="50.3158848%" y2="89.0299051%" id="linearGradient-0xxyk4j2_9-2">
            <stop stop-color="#FFEA83" offset="0%"></stop>
            <stop stop-color="#FFDD35" offset="8.33333%"></stop>
            <stop stop-color="#FFA800" offset="100%"></stop>
        </linearGradient>
    </defs>
    <g id="页面-1" stroke="none" stroke-width="1" fill="none" fill-rule="evenodd">
        <g id="切片" transform="translate(-0.000000, 0.000000)" fill-rule="nonzero">
            <g id="logo" transform="translate(0.000000, 0.000000)">
                <path d="M28.4077823,4.22385044 L15.0189189,28.165465 C14.7424795,28.6597668 14.0322799,28.6626774 13.7516929,28.1707769 L0.0973560025,4.22615713 C-0.208323075,3.69010924 0.250056194,3.04080781 0.857502431,3.14938249 L14.2606935,5.54512732 C14.346194,5.56040825 14.4337319,5.56026272 14.5192324,5.54468344 L27.6421347,3.15281706 C28.2475508,3.04247416 28.708089,3.68674743 28.4077823,4.22385044 Z" id="路径" fill="url(#linearGradient-0xxyk4j2_9-1)"></path>
                <path d="M20.6453588,0.00702575418 L10.7372012,1.94849026 C10.5743501,1.98039831 10.4537762,2.11840697 10.4439528,2.28403047 L9.8344618,12.5778207 C9.82012683,12.8202782 10.0427919,13.008452 10.279428,12.9538772 L13.0380005,12.3172444 C13.2961027,12.2577215 13.5293189,12.4850436 13.4762722,12.7446012 L12.6567048,16.7578838 C12.6015479,17.0279925 12.8551386,17.2589529 13.1189167,17.1788372 L14.8227408,16.6611773 C15.0868827,16.5809888 15.3406917,16.8126041 15.2848072,17.0829311 L13.9823622,23.3868986 C13.9008639,23.7812194 14.4253638,23.996244 14.6440994,23.6581715 L14.7902143,23.4323775 L22.8639322,7.31986956 C22.9991321,7.0500883 22.7659887,6.74246855 22.4696841,6.79964835 L19.6301955,7.3476663 C19.3633612,7.39911212 19.1363302,7.15061502 19.2116434,6.88955118 L21.0649296,0.464907303 C21.1403156,0.203403221 20.9124841,-0.0453091895 20.6453588,0.00702575418 Z" id="路径" fill="url(#linearGradient-0xxyk4j2_9-2)"></path>
            </g>
        </g>
    </g>
</svg>